<svg xmlns="http://www.w3.org/2000/svg" xmlns:xlink="http://www.w3.org/1999/xlink" width="48" zoomAndPan="magnify" viewBox="0 0 36 36.000001" height="48" preserveAspectRatio="xMidYMid meet" version="1.0"><defs><clipPath id="47ff30dfd1"><path d="M 28 18 L 35.511719 18 L 35.511719 26 L 28 26 Z M 28 18 " clip-rule="nonzero"/></clipPath><clipPath id="f64b9dfc4b"><path d="M 0.488281 18 L 5 18 L 5 26 L 0.488281 26 Z M 0.488281 18 " clip-rule="nonzero"/></clipPath></defs><g clip-path="url(#47ff30dfd1)"><path fill="#0056a4" d="M 66.46875 18.503906 C 66.632812 18.6875 66.6875 18.832031 66.683594 19.082031 C 66.644531 19.335938 66.527344 19.574219 66.34375 19.753906 C 65.917969 20.058594 65.363281 20.085938 64.859375 20.160156 C 64.777344 20.171875 64.695312 20.183594 64.609375 20.195312 C 64.382812 20.226562 64.15625 20.261719 63.929688 20.292969 C 63.6875 20.328125 63.441406 20.363281 63.199219 20.398438 C 62.773438 20.460938 62.351562 20.519531 61.929688 20.582031 C 61.28125 20.675781 60.632812 20.769531 59.984375 20.863281 C 59.753906 20.894531 59.523438 20.929688 59.292969 20.960938 C 59.234375 20.972656 59.175781 20.980469 59.117188 20.988281 C 58.707031 21.046875 58.292969 21.105469 57.878906 21.167969 C 56.347656 21.386719 54.816406 21.609375 53.28125 21.835938 C 53.234375 21.84375 53.1875 21.847656 53.136719 21.855469 C 52.601562 21.933594 52.066406 22.011719 51.53125 22.089844 C 50.542969 22.234375 49.554688 22.378906 48.566406 22.523438 C 48.515625 22.53125 48.46875 22.539062 48.414062 22.546875 C 46.675781 22.800781 44.933594 23.054688 43.191406 23.308594 C 43.160156 23.3125 43.128906 23.316406 43.097656 23.320312 C 41.742188 23.515625 40.386719 23.714844 39.027344 23.910156 C 38.570312 23.976562 38.109375 24.042969 37.652344 24.109375 C 37.539062 24.125 37.429688 24.144531 37.316406 24.160156 C 35.910156 24.363281 34.503906 24.566406 33.097656 24.773438 C 32.949219 24.792969 32.804688 24.816406 32.660156 24.835938 C 32.085938 24.921875 31.511719 25.003906 30.9375 25.089844 C 30.695312 25.125 30.449219 25.160156 30.207031 25.195312 C 30.113281 25.207031 30.015625 25.222656 29.921875 25.238281 C 29.796875 25.253906 29.667969 25.273438 29.542969 25.292969 C 29.507812 25.296875 29.46875 25.304688 29.433594 25.308594 C 29.398438 25.3125 29.367188 25.316406 29.332031 25.324219 C 29.304688 25.328125 29.277344 25.332031 29.246094 25.335938 C 29.167969 25.34375 29.167969 25.34375 29.007812 25.34375 C 28.96875 25.246094 28.96875 25.246094 28.925781 25.144531 C 28.972656 25.105469 28.972656 25.105469 29.019531 25.0625 C 30.277344 23.941406 30.785156 22.464844 30.90625 20.808594 C 30.90625 20.777344 30.910156 20.746094 30.910156 20.714844 C 30.933594 20.613281 30.964844 20.582031 31.046875 20.515625 C 31.152344 20.496094 31.152344 20.496094 31.28125 20.488281 C 31.332031 20.484375 31.382812 20.480469 31.433594 20.476562 C 31.488281 20.472656 31.542969 20.46875 31.597656 20.464844 C 31.65625 20.460938 31.714844 20.457031 31.773438 20.453125 C 31.9375 20.441406 32.097656 20.433594 32.261719 20.421875 C 32.4375 20.410156 32.613281 20.398438 32.789062 20.386719 C 33.097656 20.367188 33.40625 20.34375 33.714844 20.324219 C 34.171875 20.296875 34.632812 20.265625 35.09375 20.234375 C 35.863281 20.183594 36.636719 20.128906 37.410156 20.078125 C 38.175781 20.027344 38.941406 19.976562 39.703125 19.925781 C 39.753906 19.925781 39.800781 19.921875 39.847656 19.917969 C 40.089844 19.902344 40.332031 19.886719 40.574219 19.871094 C 42.285156 19.753906 43.996094 19.640625 45.707031 19.527344 C 47.371094 19.417969 49.03125 19.308594 50.695312 19.195312 C 50.746094 19.195312 50.796875 19.191406 50.851562 19.1875 C 51.261719 19.160156 51.671875 19.132812 52.085938 19.105469 C 53.863281 18.984375 55.636719 18.867188 57.414062 18.75 C 57.75 18.726562 58.085938 18.707031 58.417969 18.683594 C 59.425781 18.617188 60.433594 18.550781 61.4375 18.484375 C 61.855469 18.453125 62.273438 18.425781 62.6875 18.398438 C 63.03125 18.375 63.378906 18.355469 63.722656 18.332031 C 63.898438 18.320312 64.070312 18.308594 64.246094 18.296875 C 64.402344 18.285156 64.5625 18.277344 64.71875 18.265625 C 64.777344 18.261719 64.832031 18.257812 64.890625 18.253906 C 66.078125 18.171875 66.078125 18.171875 66.46875 18.503906 Z M 66.46875 18.503906 " fill-opacity="1" fill-rule="nonzero"/></g><g clip-path="url(#f64b9dfc4b)"><path fill="#0056a4" d="M -31.496094 18.234375 C -31.457031 18.238281 -31.421875 18.238281 -31.382812 18.242188 C -30.820312 18.269531 -30.257812 18.308594 -29.695312 18.347656 C -29.523438 18.359375 -29.347656 18.371094 -29.175781 18.382812 C -28.871094 18.402344 -28.570312 18.421875 -28.265625 18.441406 C -27.816406 18.472656 -27.363281 18.503906 -26.914062 18.535156 C -26.152344 18.585938 -25.394531 18.636719 -24.636719 18.6875 C -23.882812 18.734375 -23.132812 18.785156 -22.382812 18.835938 C -22.335938 18.839844 -22.289062 18.84375 -22.242188 18.84375 C -22.003906 18.863281 -21.765625 18.878906 -21.527344 18.894531 C -19.847656 19.003906 -18.167969 19.117188 -16.488281 19.230469 C -14.855469 19.339844 -13.222656 19.449219 -11.589844 19.554688 C -11.539062 19.558594 -11.488281 19.5625 -11.4375 19.566406 C -10.929688 19.601562 -10.425781 19.632812 -9.921875 19.667969 C -8.890625 19.738281 -7.859375 19.804688 -6.832031 19.875 C -6.757812 19.878906 -6.757812 19.878906 -6.6875 19.882812 C -3.527344 20.09375 -0.367188 20.304688 2.792969 20.515625 C 2.804688 20.558594 2.820312 20.597656 2.832031 20.636719 C 2.859375 20.636719 2.886719 20.636719 2.914062 20.636719 C 2.957031 20.894531 3 21.152344 3.039062 21.40625 C 3.238281 22.6875 3.601562 23.863281 4.566406 24.789062 C 4.597656 24.820312 4.597656 24.820312 4.632812 24.851562 C 4.675781 24.894531 4.71875 24.9375 4.765625 24.976562 C 4.824219 25.035156 4.824219 25.035156 4.914062 25.144531 C 4.898438 25.25 4.898438 25.25 4.875 25.34375 C 4.300781 25.285156 3.734375 25.207031 3.164062 25.121094 C 3.066406 25.109375 2.96875 25.09375 2.871094 25.078125 C 2.65625 25.046875 2.445312 25.019531 2.230469 24.988281 C 1.917969 24.941406 1.601562 24.894531 1.289062 24.847656 C 0.761719 24.773438 0.234375 24.695312 -0.289062 24.617188 C -1.046875 24.507812 -1.800781 24.398438 -2.554688 24.289062 C -2.824219 24.25 -3.09375 24.210938 -3.359375 24.171875 C -3.425781 24.160156 -3.492188 24.152344 -3.5625 24.140625 C -4.035156 24.074219 -4.507812 24.003906 -4.984375 23.933594 C -6.6875 23.683594 -8.394531 23.4375 -10.101562 23.1875 C -10.152344 23.183594 -10.203125 23.175781 -10.257812 23.167969 C -10.769531 23.09375 -11.285156 23.015625 -11.800781 22.941406 C -14.539062 22.542969 -17.277344 22.148438 -20.015625 21.746094 C -20.070312 21.738281 -20.125 21.730469 -20.179688 21.722656 C -21.21875 21.570312 -22.257812 21.417969 -23.296875 21.265625 C -23.535156 21.234375 -23.769531 21.199219 -24.007812 21.164062 C -24.054688 21.15625 -24.101562 21.148438 -24.148438 21.144531 C -24.242188 21.128906 -24.332031 21.117188 -24.425781 21.101562 C -24.703125 21.0625 -24.976562 21.023438 -25.25 20.980469 C -26.207031 20.84375 -27.164062 20.703125 -28.125 20.566406 C -28.316406 20.539062 -28.511719 20.511719 -28.707031 20.484375 C -28.734375 20.480469 -28.757812 20.476562 -28.789062 20.472656 C -28.894531 20.457031 -29.003906 20.441406 -29.113281 20.425781 C -29.457031 20.375 -29.796875 20.328125 -30.140625 20.28125 C -30.335938 20.25 -30.53125 20.222656 -30.726562 20.195312 C -30.816406 20.183594 -30.90625 20.171875 -30.996094 20.15625 C -32.253906 19.984375 -32.253906 19.984375 -32.585938 19.632812 C -32.757812 19.367188 -32.820312 19.101562 -32.785156 18.785156 C -32.652344 18.519531 -32.460938 18.390625 -32.191406 18.289062 C -31.957031 18.222656 -31.738281 18.222656 -31.496094 18.234375 Z M -31.496094 18.234375 " fill-opacity="1" fill-rule="nonzero"/></g><path fill="#0056a4" d="M 16.839844 5.027344 C 16.90625 5.027344 16.972656 5.027344 17.039062 5.027344 C 17.191406 5.566406 17.332031 6.105469 17.46875 6.644531 C 17.492188 6.730469 17.515625 6.820312 17.535156 6.90625 C 17.582031 7.089844 17.628906 7.273438 17.675781 7.457031 C 17.792969 7.902344 17.90625 8.347656 18.019531 8.792969 C 18.058594 8.945312 18.097656 9.097656 18.136719 9.25 C 18.367188 10.15625 18.597656 11.0625 18.832031 11.972656 C 19.101562 13.027344 19.375 14.085938 19.644531 15.144531 C 19.65625 15.191406 19.667969 15.238281 19.679688 15.285156 C 19.738281 15.519531 19.800781 15.753906 19.859375 15.992188 C 19.871094 16.039062 19.882812 16.082031 19.894531 16.132812 C 19.921875 16.226562 19.945312 16.320312 19.96875 16.414062 C 20.265625 17.578125 20.5625 18.742188 20.863281 19.90625 C 21.167969 21.082031 21.472656 22.261719 21.773438 23.441406 C 21.816406 23.605469 21.855469 23.769531 21.898438 23.929688 C 21.949219 24.121094 21.996094 24.3125 22.042969 24.503906 C 22.0625 24.574219 22.082031 24.644531 22.097656 24.714844 C 22.125 24.8125 22.148438 24.910156 22.171875 25.003906 C 22.183594 25.046875 22.183594 25.046875 22.195312 25.089844 C 22.226562 25.222656 22.242188 25.328125 22.242188 25.464844 C 22.21875 25.464844 22.191406 25.464844 22.164062 25.464844 C 22.164062 25.492188 22.164062 25.519531 22.164062 25.546875 C 21.542969 25.546875 20.921875 25.546875 20.28125 25.546875 C 20.28125 25.519531 20.28125 25.492188 20.28125 25.464844 C 20.242188 25.464844 20.203125 25.464844 20.164062 25.464844 C 19.871094 24.335938 19.582031 23.207031 19.28125 22.046875 C 17.722656 22.03125 16.164062 22.019531 14.558594 22.003906 C 14.546875 22.113281 14.53125 22.21875 14.519531 22.328125 C 14.496094 22.433594 14.472656 22.539062 14.445312 22.648438 C 14.4375 22.675781 14.429688 22.707031 14.421875 22.738281 C 14.394531 22.835938 14.371094 22.9375 14.34375 23.035156 C 14.328125 23.105469 14.308594 23.171875 14.292969 23.242188 C 14.253906 23.386719 14.21875 23.527344 14.179688 23.671875 C 14.132812 23.855469 14.085938 24.042969 14.039062 24.226562 C 14.003906 24.367188 13.96875 24.511719 13.929688 24.652344 C 13.914062 24.71875 13.894531 24.789062 13.878906 24.855469 C 13.855469 24.953125 13.832031 25.046875 13.804688 25.140625 C 13.796875 25.167969 13.792969 25.199219 13.785156 25.226562 C 13.765625 25.304688 13.765625 25.304688 13.71875 25.425781 C 13.679688 25.4375 13.640625 25.453125 13.597656 25.464844 C 13.597656 25.492188 13.597656 25.519531 13.597656 25.546875 C 12.976562 25.546875 12.359375 25.546875 11.71875 25.546875 C 11.71875 25.519531 11.71875 25.492188 11.71875 25.464844 C 11.691406 25.464844 11.664062 25.464844 11.636719 25.464844 C 11.664062 25.121094 11.75 24.792969 11.835938 24.460938 C 11.851562 24.394531 11.871094 24.332031 11.886719 24.265625 C 11.929688 24.09375 11.976562 23.917969 12.019531 23.746094 C 12.066406 23.558594 12.117188 23.375 12.164062 23.1875 C 12.28125 22.726562 12.398438 22.265625 12.519531 21.804688 C 12.527344 21.769531 12.535156 21.734375 12.546875 21.695312 C 12.691406 21.128906 12.839844 20.5625 12.984375 19.996094 C 13.277344 18.871094 13.5625 17.746094 13.847656 16.621094 C 14.136719 15.476562 14.429688 14.335938 14.726562 13.195312 C 15.003906 12.113281 15.28125 11.035156 15.554688 9.953125 C 15.851562 8.785156 16.148438 7.617188 16.449219 6.453125 C 16.476562 6.355469 16.5 6.261719 16.527344 6.164062 C 16.5625 6.011719 16.601562 5.863281 16.640625 5.714844 C 16.65625 5.660156 16.667969 5.605469 16.683594 5.550781 C 16.703125 5.476562 16.722656 5.402344 16.742188 5.332031 C 16.757812 5.269531 16.757812 5.269531 16.773438 5.207031 C 16.800781 5.109375 16.800781 5.109375 16.839844 5.027344 Z M 16.921875 12.792969 C 16.480469 14.484375 16.046875 16.179688 15.613281 17.875 C 15.570312 18.042969 15.527344 18.210938 15.484375 18.382812 C 15.433594 18.582031 15.382812 18.78125 15.332031 18.980469 C 15.3125 19.054688 15.296875 19.128906 15.277344 19.203125 C 15.25 19.304688 15.226562 19.40625 15.199219 19.503906 C 15.191406 19.535156 15.183594 19.5625 15.175781 19.59375 C 15.132812 19.769531 15.105469 19.933594 15.078125 20.113281 C 16.308594 20.113281 17.535156 20.113281 18.800781 20.113281 C 18.75 19.835938 18.699219 19.566406 18.628906 19.292969 C 18.621094 19.257812 18.609375 19.222656 18.601562 19.1875 C 18.570312 19.070312 18.542969 18.953125 18.511719 18.839844 C 18.492188 18.757812 18.46875 18.671875 18.449219 18.589844 C 18.390625 18.367188 18.332031 18.148438 18.277344 17.925781 C 18.21875 17.695312 18.160156 17.46875 18.101562 17.238281 C 18.015625 16.914062 17.933594 16.59375 17.851562 16.269531 C 17.667969 15.558594 17.484375 14.84375 17.300781 14.128906 C 17.257812 13.949219 17.210938 13.769531 17.164062 13.589844 C 17.15625 13.558594 17.148438 13.53125 17.144531 13.503906 C 17.128906 13.449219 17.113281 13.398438 17.101562 13.34375 C 17.054688 13.160156 17.007812 12.976562 16.960938 12.792969 C 16.949219 12.792969 16.933594 12.792969 16.921875 12.792969 Z M 16.921875 12.792969 " fill-opacity="1" fill-rule="nonzero"/><path fill="#0056a4" d="M 27.964844 15.972656 C 27.996094 15.996094 28.027344 16.023438 28.0625 16.050781 C 28.230469 16.199219 28.386719 16.351562 28.527344 16.523438 C 28.605469 16.613281 28.6875 16.699219 28.765625 16.78125 C 29.652344 17.71875 30.078125 19.058594 30.066406 20.335938 C 30.046875 20.976562 29.828125 21.699219 29.367188 22.171875 C 29.328125 22.210938 29.328125 22.210938 29.289062 22.246094 C 29.253906 22.277344 29.21875 22.3125 29.183594 22.34375 C 28.527344 22.929688 27.671875 23.191406 26.804688 23.253906 C 26.777344 23.253906 26.75 23.257812 26.71875 23.257812 C 26.1875 23.296875 25.65625 23.296875 25.125 23.292969 C 25.167969 23.457031 25.210938 23.621094 25.253906 23.785156 C 25.269531 23.839844 25.285156 23.894531 25.300781 23.949219 C 25.3125 24.003906 25.328125 24.058594 25.34375 24.113281 C 25.355469 24.164062 25.371094 24.21875 25.382812 24.273438 C 25.4375 24.464844 25.488281 24.660156 25.542969 24.851562 C 25.574219 24.980469 25.578125 25.089844 25.566406 25.222656 C 25.5 25.289062 25.433594 25.269531 25.347656 25.269531 C 25.308594 25.269531 25.269531 25.269531 25.230469 25.273438 C 25.191406 25.273438 25.148438 25.273438 25.105469 25.273438 C 25.0625 25.273438 25.019531 25.273438 24.976562 25.273438 C 24.886719 25.273438 24.796875 25.273438 24.707031 25.273438 C 24.570312 25.273438 24.433594 25.273438 24.296875 25.277344 C 24.207031 25.277344 24.121094 25.277344 24.035156 25.277344 C 23.992188 25.277344 23.953125 25.277344 23.910156 25.277344 C 23.871094 25.277344 23.832031 25.277344 23.792969 25.277344 C 23.761719 25.277344 23.726562 25.277344 23.691406 25.277344 C 23.605469 25.265625 23.605469 25.265625 23.539062 25.21875 C 23.460938 25.109375 23.4375 24.996094 23.402344 24.863281 C 23.394531 24.835938 23.386719 24.804688 23.382812 24.777344 C 23.355469 24.679688 23.332031 24.585938 23.308594 24.488281 C 23.292969 24.421875 23.273438 24.351562 23.257812 24.285156 C 23.21875 24.136719 23.183594 23.988281 23.148438 23.84375 C 23.089844 23.605469 23.027344 23.371094 22.96875 23.136719 C 22.949219 23.054688 22.929688 22.976562 22.910156 22.894531 C 22.894531 22.835938 22.894531 22.835938 22.878906 22.773438 C 22.847656 22.652344 22.816406 22.527344 22.785156 22.40625 C 22.605469 21.691406 22.421875 20.976562 22.238281 20.261719 C 22.152344 19.929688 22.066406 19.597656 21.980469 19.269531 C 21.972656 19.234375 21.964844 19.199219 21.953125 19.167969 C 21.6875 18.140625 21.429688 17.109375 21.167969 16.082031 C 21.128906 15.929688 21.089844 15.78125 21.054688 15.632812 C 21.027344 15.527344 21 15.425781 20.976562 15.324219 C 20.9375 15.175781 20.898438 15.027344 20.863281 14.882812 C 20.84375 14.808594 20.828125 14.738281 20.808594 14.664062 C 20.792969 14.605469 20.792969 14.605469 20.777344 14.542969 C 20.769531 14.507812 20.761719 14.476562 20.753906 14.441406 C 20.726562 14.347656 20.726562 14.347656 20.601562 14.28125 C 20.699219 14.15625 20.75 14.121094 20.90625 14.089844 C 23.199219 13.90625 26.191406 14.425781 27.964844 15.972656 Z M 23.242188 15.890625 C 23.265625 16.105469 23.304688 16.308594 23.355469 16.519531 C 23.363281 16.546875 23.371094 16.574219 23.378906 16.605469 C 23.402344 16.699219 23.429688 16.796875 23.453125 16.890625 C 23.46875 16.957031 23.488281 17.027344 23.503906 17.09375 C 23.550781 17.273438 23.597656 17.457031 23.644531 17.636719 C 23.679688 17.785156 23.71875 17.933594 23.757812 18.085938 C 24.0625 19.273438 24.371094 20.457031 24.683594 21.644531 C 26.394531 21.785156 26.394531 21.785156 27.964844 21.242188 C 27.992188 21.226562 28.015625 21.210938 28.042969 21.191406 C 28.289062 21.019531 28.378906 20.761719 28.445312 20.476562 C 28.523438 19.863281 28.355469 19.214844 28.085938 18.667969 C 28.070312 18.628906 28.054688 18.59375 28.035156 18.558594 C 27.875 18.230469 27.648438 17.964844 27.40625 17.699219 C 27.382812 17.675781 27.359375 17.648438 27.335938 17.625 C 27.019531 17.28125 26.707031 16.988281 26.285156 16.777344 C 26.25 16.757812 26.210938 16.738281 26.175781 16.71875 C 25.265625 16.257812 24.285156 15.867188 23.242188 15.890625 Z M 23.242188 15.890625 " fill-opacity="1" fill-rule="nonzero"/><path fill="#0056a4" d="M 12.484375 14.074219 C 12.523438 14.074219 12.5625 14.074219 12.605469 14.074219 C 12.644531 14.074219 12.683594 14.074219 12.722656 14.074219 C 12.773438 14.074219 12.773438 14.074219 12.824219 14.074219 C 12.914062 14.082031 12.992188 14.09375 13.078125 14.121094 C 13.078125 14.148438 13.078125 14.171875 13.078125 14.199219 C 13.105469 14.199219 13.132812 14.199219 13.160156 14.199219 C 13.105469 14.511719 13.039062 14.820312 12.960938 15.125 C 12.945312 15.1875 12.945312 15.1875 12.929688 15.25 C 12.921875 15.289062 12.910156 15.328125 12.898438 15.371094 C 12.890625 15.40625 12.882812 15.441406 12.875 15.476562 C 12.832031 15.582031 12.8125 15.628906 12.71875 15.691406 C 12.617188 15.707031 12.519531 15.714844 12.417969 15.71875 C 12.355469 15.722656 12.289062 15.730469 12.226562 15.734375 C 12.195312 15.734375 12.164062 15.738281 12.128906 15.738281 C 10.703125 15.820312 10.703125 15.820312 9.355469 16.253906 C 9.316406 16.269531 9.273438 16.289062 9.234375 16.308594 C 9.089844 16.375 8.945312 16.441406 8.804688 16.507812 C 8.757812 16.53125 8.714844 16.550781 8.667969 16.574219 C 7.660156 17.0625 6.878906 17.953125 6.503906 19.011719 C 6.304688 19.675781 6.277344 20.316406 6.386719 21 C 6.390625 21.042969 6.398438 21.089844 6.40625 21.132812 C 6.496094 21.738281 6.699219 22.238281 7.195312 22.609375 C 8.125 23.269531 9.199219 23.421875 10.292969 23.628906 C 10.410156 23.648438 10.523438 23.671875 10.636719 23.695312 C 10.636719 23.722656 10.636719 23.75 10.636719 23.777344 C 10.664062 23.777344 10.691406 23.777344 10.71875 23.777344 C 10.636719 24.152344 10.554688 24.53125 10.453125 24.90625 C 10.445312 24.9375 10.4375 24.96875 10.425781 25 C 10.40625 25.074219 10.382812 25.148438 10.355469 25.222656 C 10.042969 25.382812 9.4375 25.167969 9.105469 25.09375 C 9.007812 25.074219 8.910156 25.050781 8.8125 25.03125 C 8.253906 24.914062 7.6875 24.789062 7.171875 24.535156 C 7.140625 24.519531 7.109375 24.503906 7.078125 24.488281 C 6.148438 24.023438 5.316406 23.28125 4.957031 22.28125 C 4.863281 21.941406 4.808594 21.589844 4.753906 21.242188 C 4.75 21.210938 4.746094 21.179688 4.738281 21.148438 C 4.523438 19.773438 4.792969 18.300781 5.582031 17.140625 C 5.722656 16.953125 5.875 16.785156 6.035156 16.613281 C 6.078125 16.566406 6.121094 16.515625 6.164062 16.464844 C 7.617188 14.804688 9.738281 14.226562 11.863281 14.085938 C 12.070312 14.078125 12.277344 14.074219 12.484375 14.074219 Z M 12.484375 14.074219 " fill-opacity="1" fill-rule="nonzero"/><path fill="#0056a4" d="M 8.019531 26.300781 C 8.066406 26.300781 8.066406 26.300781 8.113281 26.300781 C 8.21875 26.300781 8.324219 26.300781 8.429688 26.300781 C 8.507812 26.300781 8.582031 26.300781 8.660156 26.300781 C 8.867188 26.296875 9.078125 26.296875 9.289062 26.296875 C 9.515625 26.296875 9.738281 26.296875 9.964844 26.296875 C 10.410156 26.296875 10.851562 26.296875 11.296875 26.296875 C 11.65625 26.296875 12.015625 26.296875 12.375 26.296875 C 12.453125 26.296875 12.453125 26.296875 12.53125 26.296875 C 12.632812 26.296875 12.738281 26.296875 12.84375 26.296875 C 13.539062 26.296875 14.238281 26.296875 14.9375 26.296875 C 14.976562 26.296875 14.976562 26.296875 15.019531 26.296875 C 15.15625 26.296875 15.296875 26.296875 15.433594 26.296875 C 15.460938 26.296875 15.488281 26.296875 15.519531 26.296875 C 15.574219 26.296875 15.628906 26.296875 15.683594 26.296875 C 16.550781 26.296875 17.414062 26.296875 18.28125 26.296875 C 19.253906 26.296875 20.222656 26.296875 21.195312 26.296875 C 21.710938 26.296875 22.226562 26.296875 22.738281 26.292969 C 23.179688 26.292969 23.617188 26.292969 24.054688 26.292969 C 24.277344 26.292969 24.5 26.292969 24.726562 26.292969 C 24.929688 26.292969 25.132812 26.292969 25.339844 26.292969 C 25.414062 26.292969 25.488281 26.292969 25.5625 26.292969 C 25.664062 26.292969 25.761719 26.292969 25.863281 26.292969 C 25.90625 26.292969 25.90625 26.292969 25.953125 26.292969 C 26.070312 26.296875 26.148438 26.296875 26.246094 26.363281 C 26.285156 26.429688 26.285156 26.429688 26.285156 26.535156 C 26.246094 26.632812 26.246094 26.632812 26.15625 26.675781 C 26.042969 26.714844 25.929688 26.742188 25.808594 26.769531 C 25.738281 26.785156 25.738281 26.785156 25.667969 26.800781 C 25.617188 26.808594 25.5625 26.820312 25.511719 26.832031 C 25.457031 26.84375 25.398438 26.855469 25.34375 26.867188 C 25.195312 26.902344 25.042969 26.933594 24.894531 26.96875 C 24.730469 27.003906 24.570312 27.035156 24.410156 27.070312 C 24.101562 27.140625 23.796875 27.207031 23.488281 27.273438 C 23.046875 27.367188 22.609375 27.464844 22.171875 27.558594 C 22.105469 27.574219 22.039062 27.585938 21.972656 27.601562 C 21.9375 27.609375 21.90625 27.617188 21.871094 27.625 C 21.671875 27.667969 21.472656 27.710938 21.269531 27.753906 C 20.589844 27.902344 19.90625 28.050781 19.226562 28.203125 C 19.023438 28.25 18.820312 28.296875 18.617188 28.34375 C 18.421875 28.386719 18.230469 28.429688 18.039062 28.472656 C 17.921875 28.5 17.804688 28.527344 17.683594 28.550781 C 17.628906 28.566406 17.578125 28.578125 17.523438 28.589844 C 17.226562 28.65625 16.976562 28.707031 16.679688 28.644531 C 16.644531 28.636719 16.609375 28.628906 16.574219 28.621094 C 16.449219 28.597656 16.328125 28.570312 16.207031 28.542969 C 16.136719 28.527344 16.136719 28.527344 16.0625 28.511719 C 15.9375 28.484375 15.808594 28.457031 15.679688 28.429688 C 15.542969 28.398438 15.40625 28.371094 15.269531 28.339844 C 15.007812 28.28125 14.742188 28.226562 14.476562 28.167969 C 14.265625 28.121094 14.054688 28.074219 13.839844 28.027344 C 13.199219 27.886719 12.5625 27.75 11.921875 27.609375 C 11.46875 27.507812 11.019531 27.410156 10.566406 27.3125 C 10.21875 27.238281 9.871094 27.160156 9.519531 27.085938 C 9.324219 27.039062 9.128906 26.996094 8.933594 26.957031 C 8.75 26.914062 8.570312 26.875 8.390625 26.835938 C 8.324219 26.820312 8.261719 26.808594 8.195312 26.792969 C 8.109375 26.773438 8.019531 26.753906 7.933594 26.738281 C 7.886719 26.726562 7.835938 26.714844 7.789062 26.703125 C 7.675781 26.671875 7.675781 26.671875 7.597656 26.589844 C 7.582031 26.492188 7.582031 26.492188 7.597656 26.390625 C 7.742188 26.292969 7.851562 26.296875 8.019531 26.300781 Z M 8.019531 26.300781 " fill-opacity="1" fill-rule="nonzero"/><path fill="#0056a4" d="M 2.238281 9.890625 C 2.28125 9.890625 2.320312 9.890625 2.367188 9.890625 C 2.4375 9.890625 2.4375 9.890625 2.507812 9.890625 C 2.558594 9.890625 2.605469 9.890625 2.65625 9.890625 C 2.796875 9.890625 2.933594 9.890625 3.070312 9.890625 C 3.222656 9.890625 3.371094 9.890625 3.519531 9.890625 C 3.777344 9.890625 4.035156 9.890625 4.292969 9.890625 C 4.664062 9.894531 5.035156 9.894531 5.410156 9.894531 C 6.015625 9.894531 6.617188 9.894531 7.222656 9.894531 C 7.808594 9.894531 8.398438 9.894531 8.984375 9.894531 C 9.019531 9.894531 9.058594 9.894531 9.09375 9.894531 C 9.277344 9.894531 9.457031 9.894531 9.640625 9.894531 C 11.144531 9.894531 12.652344 9.894531 14.160156 9.898438 C 14.160156 9.9375 14.160156 9.976562 14.160156 10.015625 C 14.1875 10.015625 14.210938 10.015625 14.238281 10.015625 C 14.152344 10.425781 14.058594 10.835938 13.957031 11.242188 C 13.945312 11.28125 13.9375 11.320312 13.925781 11.363281 C 13.917969 11.402344 13.90625 11.4375 13.898438 11.476562 C 13.890625 11.511719 13.882812 11.542969 13.871094 11.578125 C 13.832031 11.683594 13.808594 11.722656 13.71875 11.789062 C 13.613281 11.792969 13.519531 11.789062 13.417969 11.78125 C 13.386719 11.777344 13.355469 11.777344 13.320312 11.773438 C 13.214844 11.765625 13.105469 11.757812 13 11.746094 C 12.960938 11.742188 12.921875 11.742188 12.882812 11.738281 C 12.574219 11.710938 12.261719 11.679688 11.953125 11.652344 C 11.847656 11.640625 11.746094 11.632812 11.640625 11.621094 C 11.390625 11.597656 11.140625 11.574219 10.886719 11.550781 C 10.683594 11.53125 10.480469 11.511719 10.277344 11.492188 C 10.230469 11.488281 10.230469 11.488281 10.1875 11.484375 C 10.128906 11.480469 10.070312 11.472656 10.007812 11.46875 C 9.457031 11.414062 8.902344 11.363281 8.347656 11.308594 C 7.871094 11.265625 7.398438 11.21875 6.925781 11.175781 C 6.371094 11.121094 5.820312 11.070312 5.265625 11.019531 C 5.207031 11.011719 5.148438 11.007812 5.089844 11 C 5.058594 11 5.03125 10.996094 5 10.992188 C 4.796875 10.972656 4.59375 10.953125 4.390625 10.933594 C 4.117188 10.910156 3.839844 10.882812 3.566406 10.855469 C 3.46875 10.847656 3.367188 10.835938 3.265625 10.828125 C 2.976562 10.800781 2.683594 10.773438 2.394531 10.742188 C 2.363281 10.738281 2.332031 10.734375 2.300781 10.730469 C 2.226562 10.722656 2.152344 10.714844 2.078125 10.703125 C 2.042969 10.699219 2.003906 10.695312 1.964844 10.691406 C 1.847656 10.652344 1.792969 10.597656 1.710938 10.5 C 1.679688 10.375 1.6875 10.261719 1.710938 10.136719 C 1.867188 9.9375 1.992188 9.890625 2.238281 9.890625 Z M 2.238281 9.890625 " fill-opacity="1" fill-rule="nonzero"/><path fill="#0056a4" d="M 19.722656 9.976562 C 21.257812 9.976562 22.796875 9.972656 24.332031 9.972656 C 24.511719 9.972656 24.695312 9.972656 24.875 9.972656 C 24.910156 9.972656 24.949219 9.972656 24.984375 9.972656 C 25.570312 9.972656 26.152344 9.972656 26.738281 9.972656 C 27.339844 9.96875 27.9375 9.96875 28.539062 9.96875 C 28.910156 9.96875 29.277344 9.96875 29.648438 9.96875 C 29.902344 9.96875 30.15625 9.96875 30.410156 9.96875 C 30.554688 9.96875 30.703125 9.96875 30.847656 9.96875 C 31.007812 9.96875 31.167969 9.96875 31.324219 9.96875 C 31.371094 9.96875 31.417969 9.96875 31.464844 9.964844 C 31.507812 9.964844 31.550781 9.96875 31.59375 9.96875 C 31.632812 9.96875 31.667969 9.96875 31.707031 9.96875 C 31.820312 9.976562 31.90625 10.003906 32.007812 10.058594 C 32.109375 10.207031 32.109375 10.28125 32.089844 10.460938 C 31.914062 10.664062 31.6875 10.660156 31.433594 10.679688 C 31.386719 10.6875 31.339844 10.691406 31.292969 10.695312 C 31.164062 10.707031 31.035156 10.71875 30.90625 10.730469 C 30.765625 10.742188 30.628906 10.757812 30.488281 10.769531 C 30.214844 10.796875 29.945312 10.824219 29.671875 10.847656 C 29.355469 10.875 29.035156 10.90625 28.71875 10.9375 C 28.152344 10.992188 27.585938 11.042969 27.019531 11.097656 C 26.472656 11.148438 25.921875 11.199219 25.371094 11.25 C 25.339844 11.253906 25.304688 11.257812 25.269531 11.261719 C 25.132812 11.273438 24.996094 11.285156 24.863281 11.300781 C 24.304688 11.351562 23.75 11.40625 23.195312 11.457031 C 23.070312 11.46875 22.941406 11.480469 22.816406 11.492188 C 22.484375 11.523438 22.152344 11.554688 21.816406 11.585938 C 21.679688 11.597656 21.542969 11.613281 21.40625 11.625 C 21.257812 11.640625 21.105469 11.652344 20.957031 11.667969 C 20.894531 11.671875 20.894531 11.671875 20.828125 11.679688 C 20.589844 11.699219 20.359375 11.710938 20.121094 11.707031 C 20.066406 11.488281 20.007812 11.265625 19.953125 11.046875 C 19.933594 10.96875 19.914062 10.894531 19.894531 10.820312 C 19.867188 10.710938 19.835938 10.605469 19.808594 10.496094 C 19.800781 10.464844 19.792969 10.429688 19.785156 10.394531 C 19.773438 10.363281 19.765625 10.332031 19.757812 10.300781 C 19.75 10.273438 19.746094 10.246094 19.738281 10.21875 C 19.722656 10.136719 19.722656 10.136719 19.722656 9.976562 Z M 19.722656 9.976562 " fill-opacity="1" fill-rule="nonzero"/></svg>