<?xml version="1.0" encoding="UTF-8"?>
<svg version="1.1" xmlns="http://www.w3.org/2000/svg" width="2826" height="780" viewBox="0 0 2826 780">
<path d="M0 0 C4.10070812 4.54402792 5.49993908 8.11622803 5.3984375 14.328125 C4.4599555 20.62147485 1.51679719 26.5551113 -3.05078125 30.9921875 C-13.71865695 38.60939182 -27.56757268 39.30731073 -40.16821289 41.08984375 C-42.2375231 41.38832759 -44.30673553 41.68748993 -46.37585831 41.98727036 C-52.04377506 42.80651219 -57.7130066 43.61631086 -63.3824923 44.424613 C-69.48149238 45.29590966 -75.57919668 46.17618534 -81.67704773 47.05548096 C-92.23833006 48.57723057 -102.80035708 50.09370482 -113.36291504 51.60656738 C-129.55570182 53.92594444 -145.74703891 56.25533463 -161.93803951 58.5871442 C-167.71423957 59.41901098 -173.49046267 60.25071781 -179.26668255 61.08244696 C-180.72040018 61.29177335 -182.17411702 61.50110516 -183.62783308 61.71044239 C-193.93715118 63.1949929 -204.24663883 64.6783607 -214.55625071 66.16086957 C-252.84765734 71.66724418 -291.13518641 77.19954282 -329.41796875 82.765625 C-330.62551418 82.94118408 -331.8330596 83.11674315 -333.07719731 83.2976222 C-346.44454998 85.24109377 -359.8117657 87.18550605 -373.17892456 89.13031006 C-397.87398575 92.72316491 -422.56967029 96.31172988 -447.265625 99.8984375 C-448.51290084 100.07958996 -449.76017667 100.26074243 -451.04524875 100.44738436 C-494.56389554 106.76768507 -538.0857984 113.06531156 -581.609375 119.3515625 C-582.36440694 119.4606144 -583.11943888 119.5696663 -583.89735058 119.68202281 C-617.79734694 124.57825271 -651.69784998 129.47097112 -685.59856331 134.36223412 C-697.06001218 136.01591755 -708.52144571 137.66970727 -719.98287225 139.32354546 C-722.7779144 139.72685801 -725.57295829 140.13015855 -728.36800361 140.53344917 C-763.51886195 145.6053136 -798.66839149 150.6861764 -833.81446695 155.7910943 C-837.45576039 156.31993978 -841.09708432 156.84857506 -844.73840988 157.37719929 C-859.09108708 159.46085773 -873.44375378 161.54456729 -887.79514033 163.63709962 C-893.858325 164.52104904 -899.92188286 165.40240846 -905.9855938 166.28274155 C-908.37406782 166.63003932 -910.76239572 166.97834387 -913.15056038 167.3277626 C-916.3103787 167.79005617 -919.4706672 168.24898487 -922.63110352 168.70703125 C-923.53812767 168.84066008 -924.44515182 168.9742889 -925.37966156 169.11196709 C-926.20417564 169.23075281 -927.02868973 169.34953854 -927.87818909 169.47192383 C-928.58400903 169.57483231 -929.28982897 169.67774078 -930.01703739 169.7837677 C-932 170 -932 170 -936 170 C-936.99 167.525 -936.99 167.525 -938 165 C-936.87464844 164.01773438 -936.87464844 164.01773438 -935.7265625 163.015625 C-904.21990541 135.10351337 -891.559362 98.39935055 -888.546875 57.24609375 C-888.50916992 56.48868896 -888.47146484 55.73128418 -888.43261719 54.95092773 C-887.86112455 52.37372813 -887.08640336 51.61540423 -885 50 C-882.3731164 49.4760377 -882.3731164 49.4760377 -879.13623941 49.26191884 C-877.9019316 49.17347218 -876.66762379 49.08502552 -875.39591271 48.99389866 C-874.01605423 48.90924346 -872.63618015 48.82484213 -871.25629234 48.74066639 C-869.79218101 48.64114863 -868.32815241 48.54040748 -866.86420208 48.43854871 C-862.81396005 48.16034534 -858.76274603 47.89966956 -854.71117395 47.64166661 C-850.31378642 47.35858215 -845.9174915 47.05938852 -841.52103961 46.76218766 C-833.80641678 46.24293494 -826.09116049 45.73410425 -818.37540436 45.23198509 C-806.90179651 44.48527276 -795.4292848 43.72266043 -783.95694486 42.95674452 C-764.65863035 41.66881926 -745.35947109 40.39399305 -726.05979538 39.12664223 C-706.93733805 37.87090327 -687.81525621 36.60967685 -668.69365311 35.34099388 C-667.50567991 35.26217833 -666.31770672 35.18336279 -665.09373433 35.10215889 C-659.06069493 34.70187495 -653.02766164 34.30149901 -646.99463041 33.90109184 C-604.22747646 31.0628797 -561.45944742 28.23805641 -518.69091797 25.4206543 C-477.15717855 22.68458115 -435.62394517 19.9409971 -394.09130859 17.18823242 C-392.81235077 17.10346581 -391.53339295 17.0186992 -390.21567882 16.93136391 C-379.92691454 16.24944372 -369.63815186 15.56749943 -359.34939219 14.88550967 C-314.96362158 11.94342545 -270.57743884 9.00756987 -226.19118218 6.07282902 C-217.81707975 5.51912757 -209.44299298 4.96518978 -201.06891203 4.41116357 C-175.92257765 2.74757781 -150.77612326 1.08584125 -125.62929194 -0.57021769 C-115.22629047 -1.25534725 -104.82334787 -1.94133822 -94.420578 -2.62997627 C-85.79797717 -3.20076524 -77.17524935 -3.7695834 -68.55233957 -4.33568687 C-64.20951119 -4.62085276 -59.86674925 -4.90694393 -55.52415209 -5.19561132 C-51.57331251 -5.45821227 -47.62230313 -5.71808277 -43.67114065 -5.9757782 C-42.25092114 -6.06888124 -40.83076597 -6.16297221 -39.4106857 -6.25817534 C-9.70297471 -8.24752851 -9.70297471 -8.24752851 0 0 Z " fill="rgb(238, 238, 238)" transform="translate(2626,413)"/>
<path d="M0 0 C0.94968424 0.0478719 1.89936847 0.09574381 2.87783102 0.14506638 C16.91722674 0.88118409 30.94441064 1.84418796 44.97149102 2.78175124 C49.30788382 3.07107263 53.6444553 3.35769371 57.9810034 3.64467615 C65.56087301 4.14665837 73.1406295 4.65032044 80.72031212 5.15511799 C91.99081726 5.90571196 103.26149739 6.65365307 114.53221356 7.40107082 C133.49638501 8.65875466 152.46041496 9.91855991 171.42436409 11.17959118 C190.19012504 12.42743666 208.95594894 13.67432883 227.72185707 14.91995907 C228.89042148 14.99752575 230.05898589 15.07509243 231.26296134 15.15500961 C237.19796127 15.54895662 243.13296231 15.94288671 249.06796379 16.33681028 C291.06153598 19.12407821 333.05496707 21.91346659 375.04831505 24.70411015 C415.83405082 27.41449764 456.61985055 30.12391957 497.40573692 32.83203983 C498.66382654 32.91557544 499.92191615 32.99911104 501.21812969 33.08517803 C513.85284641 33.92410663 526.48756443 34.76301566 539.12228339 35.60191036 C564.858672 37.31070385 590.59505193 39.01962793 616.33142662 40.72863102 C618.10624503 40.84648615 618.10624503 40.84648615 619.91691835 40.9667222 C698.87573892 46.20992289 777.83435731 51.4561673 856.79294395 56.70288944 C857.12294395 57.69288944 857.45294395 58.68288944 857.79294395 59.70288944 C858.45294395 59.70288944 859.11294395 59.70288944 859.79294395 59.70288944 C860.8695269 66.07605384 861.91476636 72.45260785 862.9062252 78.83960819 C867.9164616 110.70696909 876.98192962 139.84543666 901.0624752 162.87476444 C901.89621666 163.67599735 901.89621666 163.67599735 902.74680138 164.49341679 C903.84036874 165.53026882 904.94828466 166.55224409 906.07150841 167.55689335 C907.58200645 168.97632694 907.58200645 168.97632694 909.79294395 171.70288944 C909.43112755 174.3732996 909.43112755 174.3732996 908.79294395 176.70288944 C894.49784352 175.23988363 880.29763923 173.26547911 866.07980919 171.19165897 C863.6185329 170.83492556 861.15721811 170.47845765 858.69586849 170.12223053 C853.38378208 169.35282393 848.07196407 168.58160244 842.7603817 167.80872631 C834.90641738 166.66593274 827.0519446 165.52666383 819.19736014 164.3881414 C806.046347 162.48181825 792.89571736 160.57286238 779.74530602 158.66239262 C760.8690324 155.92011496 741.99221103 153.18162114 723.11525066 150.4440753 C716.42699699 149.4741362 709.73875192 148.50413774 703.05050568 147.53414742 C701.37187821 147.29069871 699.69325044 147.04725216 698.01462235 146.80380776 C686.16711215 145.08561074 674.31966962 143.36694789 662.47227567 141.64794951 C619.8621426 135.46548479 577.25052425 129.29341277 534.63669395 123.13648319 C533.34288229 122.94954403 532.04907062 122.76260487 530.71605253 122.57000089 C517.864071 120.71306284 505.01205237 118.8563817 492.16000593 116.99989301 C423.72984351 107.11509188 355.30134499 97.21897132 286.87888145 87.28101444 C285.5196248 87.08359448 284.16036814 86.8861746 282.80111146 86.6887548 C256.8104073 82.91379915 230.81988313 79.13760509 204.82986432 75.35793346 C198.92759052 74.49958357 193.02529762 73.6413655 187.12295246 72.78350639 C185.96554627 72.61528529 184.80814007 72.44706419 183.61566097 72.27374548 C181.29032164 71.93577544 178.96498134 71.59781219 176.63964003 71.25985581 C169.78830121 70.26395716 162.93716669 69.26666651 156.08617729 68.26836711 C132.14587263 64.78056959 108.2012403 61.32596292 84.24702213 57.93510214 C79.40898392 57.25010822 74.57122488 56.56317076 69.73364735 55.87493134 C69.05674999 55.77863848 68.37985264 55.68234563 67.68244324 55.58313481 C64.96499863 55.19652303 62.24756212 54.80985463 59.53016042 54.42294132 C50.97405717 53.20475773 42.41663732 51.99662394 33.85771513 50.79836226 C28.99028358 50.11457541 24.12420507 49.42151269 19.25843835 48.72598767 C17.00538167 48.40591859 14.75176837 48.08973904 12.4975698 47.77781367 C-18.96756313 43.41888316 -18.96756313 43.41888316 -27.20705605 34.70288944 C-31.50358686 28.10151411 -33.08702316 21.53704108 -32.20705605 13.70288944 C-28.89831892 7.0854152 -24.12509972 3.80007593 -17.3672123 1.31617069 C-11.47275149 -0.35730191 -6.04849092 -0.33181355 0 0 Z " fill="rgb(238, 238, 238)" transform="translate(178.20705604553223,406.29711055755615)"/>
<path d="M0 0 C1.65 0 3.3 0 5 0 C8.7720191 13.34922384 12.29725399 26.75246255 15.734375 40.19140625 C16.28577995 42.34163188 16.83735954 44.49181273 17.38909912 46.64195251 C18.56433861 51.22312688 19.73853071 55.80456783 20.91186523 60.38623047 C23.7449546 71.4485761 26.5836413 82.50948621 29.42160034 93.57058334 C30.39425509 97.36180564 31.36669648 101.15308262 32.33911133 104.94436646 C38.12258289 127.49077071 43.92990455 150.03098929 49.74404907 172.56949997 C56.52477064 198.85547175 63.29740502 225.1434842 70.046875 251.4375 C70.3433877 252.59259253 70.6399004 253.74768505 70.94539833 254.93778038 C72.44672055 260.78641129 73.94794314 266.63506776 75.4491272 272.48373413 C75.74643864 273.64206631 76.04375008 274.80039848 76.35007095 275.99383163 C76.94962616 278.32972857 77.54917197 280.66562792 78.14870834 283.00152969 C85.57859985 311.94881695 93.03129305 340.88987641 100.54666138 369.81509399 C108.15261768 399.08952094 115.72344015 428.37291965 123.23666382 457.67129517 C124.28043407 461.74100372 125.32643262 465.81012911 126.37442017 469.87875366 C127.59674668 474.62477105 128.81441432 479.37195889 130.02841187 484.12011337 C130.47707776 485.87176308 130.92737774 487.62299512 131.37939453 489.37378311 C131.99804733 491.77126243 132.61074133 494.1701873 133.22192383 496.56958008 C133.49511806 497.61979104 133.49511806 497.61979104 133.77383137 498.69121838 C134.59707533 501.94893591 135 504.60560755 135 508 C134.34 508 133.68 508 133 508 C133 508.66 133 509.32 133 510 C117.49 510 101.98 510 86 510 C86 509.34 86 508.68 86 508 C85.01 508 84.02 508 83 508 C75.74 479.95 68.48 451.9 61 423 C22.06 422.67 -16.88 422.34 -57 422 C-57.33 424.64 -57.66 427.28 -58 430 C-58.59248785 432.67410668 -59.21550081 435.31187492 -59.90185547 437.96069336 C-60.09225403 438.71128021 -60.28265259 439.46186707 -60.4788208 440.23519897 C-61.10285504 442.68816979 -61.73441356 445.13911394 -62.3671875 447.58984375 C-62.80704373 449.30235594 -63.24683148 451.01488571 -63.68655396 452.72743225 C-64.60581112 456.30144426 -65.52946225 459.87428971 -66.45556641 463.4465332 C-67.64354685 468.03248112 -68.81489305 472.62250721 -69.98238945 477.21370602 C-70.88310009 480.74428225 -71.79525313 484.27182677 -72.71066666 487.79861641 C-73.14786044 489.49088378 -73.58080267 491.18425532 -74.00945663 492.87870598 C-74.60740177 495.23746985 -75.22124933 497.59152026 -75.83935547 499.94506836 C-76.01401337 500.64891159 -76.18867126 501.35275482 -76.36862183 502.07792664 C-76.88668823 504.01036072 -76.88668823 504.01036072 -78 507 C-78.99 507.33 -79.98 507.66 -81 508 C-81 508.66 -81 509.32 -81 510 C-96.51 510 -112.02 510 -128 510 C-128 509.34 -128 508.68 -128 508 C-128.66 508 -129.32 508 -130 508 C-129.38108926 499.43083431 -127.20184794 491.31451885 -125.046875 483.03125 C-124.63505166 481.42986121 -124.22376004 479.8283356 -123.81295776 478.22668457 C-122.69922483 473.89097811 -121.57780281 469.55729374 -120.45496368 465.22393799 C-119.2615571 460.61268551 -118.07538624 455.99957154 -116.88818359 451.38671875 C-113.93561247 439.92184737 -110.96965326 428.46045711 -108 417 C-107.77241501 416.12166504 -107.54483002 415.24333008 -107.31034851 414.33837891 C-103.65356162 400.226727 -99.99354537 386.11590868 -96.32775879 372.0065918 C-89.06970971 344.0702527 -81.90367909 316.11108409 -74.77127838 288.14242554 C-67.53073199 259.75089058 -60.22714447 231.37665641 -52.85501862 203.01901245 C-45.87038643 176.15055568 -38.96442816 149.26280462 -32.10486603 122.3621521 C-24.71100489 93.36730323 -17.28376563 64.3816404 -9.75434113 35.42166138 C-9.12845341 33.01328848 -8.50341755 30.60469594 -7.87860107 28.19604492 C-6.91435943 24.47968511 -5.94774301 20.76395172 -4.97904205 17.04875183 C-4.62684429 15.6968203 -4.27536311 14.34470186 -3.92464447 12.99238586 C-3.44945714 11.16103512 -2.97115779 9.33049269 -2.49267578 7.5 C-2.09376633 5.96859375 -2.09376633 5.96859375 -1.6867981 4.40625 C-1 2 -1 2 0 0 Z M2 193 C-8.95522458 235.09021265 -19.85532507 277.1945532 -30.63818359 319.32928467 C-31.71174076 323.52408318 -32.78701608 327.71843537 -33.86376953 331.91241455 C-35.13913249 336.8806135 -36.41077371 341.84975032 -37.67952728 346.81964111 C-38.14807435 348.65266781 -38.61785744 350.48537908 -39.08896637 352.31774902 C-39.73499535 354.83156298 -40.376375 357.3465194 -41.01660156 359.86181641 C-41.20447739 360.58853861 -41.39235321 361.31526081 -41.58592224 362.0640049 C-42.68451819 366.40526399 -43.36113991 370.52797937 -44 375 C-13.31 375 17.38 375 49 375 C47.74094187 368.07518031 46.44275346 361.3696875 44.671875 354.59057617 C44.44656916 353.71499967 44.22126331 352.83942316 43.98913002 351.93731403 C43.24644664 349.05489804 42.4982403 346.17394676 41.75 343.29296875 C41.21810462 341.23304129 40.686568 339.17302116 40.15536499 337.11291504 C38.73468625 331.60703434 37.3093303 326.10237454 35.88311005 320.59792709 C34.40828031 314.90237498 32.93790517 309.20567346 31.46728516 303.5090332 C29.39555349 295.4852072 27.32264077 287.46168843 25.24804878 279.43860149 C20.66293381 261.70580797 16.09899841 243.96760084 11.54150391 226.22769165 C10.38885312 221.74110096 9.23554128 217.25468039 8.08203125 212.76831055 C7.90426462 212.07691545 7.72649799 211.38552036 7.5433445 210.6731739 C7.20049413 209.33971754 6.85764253 208.00626149 6.51478958 206.67280579 C5.34301427 202.11524982 4.171517 197.55762237 3 193 C2.67 193 2.34 193 2 193 Z " fill="rgb(238, 238, 238)" transform="translate(1386,78)"/>
<path d="M0 0 C0.77988281 0.65871094 1.55976562 1.31742187 2.36328125 1.99609375 C6.61411267 5.6610963 10.44953895 9.45820994 14.05859375 13.75390625 C15.97069055 15.96609068 17.97592332 18.06769645 20.0012207 20.17578125 C42.09512535 43.43015106 52.79628267 76.78937641 52.46801758 108.46069336 C51.97195062 124.46113123 46.50536286 142.39942579 35.01953125 154.14453125 C34.01986328 155.06298828 34.01986328 155.06298828 33 156 C32.13761719 156.80824219 31.27523438 157.61648438 30.38671875 158.44921875 C13.96343335 173.0017723 -7.37730217 179.44741602 -29 181 C-29.71414063 181.05494629 -30.42828125 181.10989258 -31.1640625 181.16650391 C-44.43260158 182.14604109 -57.70263767 182.11659632 -71 182 C-69.91602803 186.07115672 -68.83161586 190.14219588 -67.74682617 194.21313477 C-67.37919728 195.59298671 -67.0116809 196.97286864 -66.64428711 198.3527832 C-66.28738888 199.69322091 -65.93032399 201.03361425 -65.5730896 202.3739624 C-65.22014001 203.69843262 -64.86762012 205.02301742 -64.51553345 206.34771729 C-63.23388377 211.15912287 -61.90224257 215.95512687 -60.53344727 220.74243164 C-59.77414796 223.95581411 -59.71441865 226.71581445 -60 230 C-61.5941741 231.5941741 -63.26309131 231.14320702 -65.47216797 231.16113281 C-66.42340546 231.17074036 -67.37464294 231.1803479 -68.35470581 231.19024658 C-69.39007477 231.19449646 -70.42544373 231.19874634 -71.4921875 231.203125 C-72.54906769 231.20882507 -73.60594788 231.21452515 -74.69485474 231.22039795 C-76.93604526 231.22986448 -79.17724981 231.23638846 -81.41845703 231.24023438 C-84.85343641 231.24993908 -88.2878175 231.28094701 -91.72265625 231.3125 C-93.89582976 231.31902972 -96.06900758 231.32428031 -98.2421875 231.328125 C-99.273508 231.3404718 -100.30482849 231.3528186 -101.36740112 231.36553955 C-102.32494293 231.36253845 -103.28248474 231.35953735 -104.26904297 231.35644531 C-105.11207977 231.36009094 -105.95511658 231.36373657 -106.82369995 231.36749268 C-109 231 -109 231 -110.66900635 229.91207886 C-112.61212091 227.12063934 -113.19885407 224.34553424 -114.02685547 221.05029297 C-114.20861863 220.3393108 -114.39038179 219.62832863 -114.57765293 218.89580154 C-115.18405735 216.51365001 -115.77547838 214.12802802 -116.3671875 211.7421875 C-116.79713107 210.04198064 -117.22806771 208.34202464 -117.65992737 206.64230347 C-118.5877742 202.9826817 -119.50922561 199.32153109 -120.42575073 195.65905762 C-121.89050758 189.80679387 -123.36961551 183.95822091 -124.85180664 178.11035156 C-125.35781259 176.11352773 -125.86380924 174.11670155 -126.36979675 172.11987305 C-126.74812684 170.6269725 -126.74812684 170.6269725 -127.13409996 169.10391235 C-127.90771384 166.04910739 -128.67995535 162.99395834 -129.45185852 159.9387207 C-133.94720767 142.15340531 -138.54035961 124.39437433 -143.16369629 106.64196777 C-145.30732054 98.41083474 -147.4460867 90.17844154 -149.58203125 81.9453125 C-149.79686031 81.11725098 -150.01168938 80.28918945 -150.23302841 79.43603516 C-156.85888388 53.88535822 -163.37480361 28.30632617 -169.8924799 2.72788048 C-170.84239276 -0.99968867 -171.79288951 -4.72710883 -172.74340248 -8.45452499 C-173.39284973 -11.00270674 -174.04121769 -13.5511613 -174.6894989 -16.09963989 C-175.62280294 -19.76712165 -176.56688193 -23.43171443 -177.51428986 -27.09557343 C-177.97116158 -28.88692708 -178.40846164 -30.68323988 -178.84442139 -32.47979736 C-179.21799774 -33.97213898 -179.21799774 -33.97213898 -179.59912109 -35.49462891 C-179.80137299 -36.33071686 -180.00362488 -37.16680481 -180.21200562 -38.02822876 C-180.92854154 -40.36170654 -180.92854154 -40.36170654 -184 -42 C-181.62560794 -45.06692307 -180.28785102 -45.93939979 -176.4375 -46.75 C-119.11803732 -51.2904817 -44.39446706 -38.43445255 0 0 Z M-118 -2 C-117.41691528 3.32109427 -116.53300068 8.41074086 -115.1809082 13.59448242 C-114.99816754 14.31127859 -114.81542688 15.02807476 -114.62714863 15.76659203 C-114.02309833 18.13079382 -113.41202396 20.49311721 -112.80078125 22.85546875 C-112.36870329 24.53977212 -111.93702062 26.22417694 -111.50570679 27.90867615 C-110.35220115 32.40799995 -109.19232936 36.90565921 -108.03097153 41.40296173 C-107.07310688 45.11530197 -106.11890663 48.82858016 -105.16461277 52.5418396 C-97.57634331 82.06316779 -89.86550641 111.55125349 -82 141 C-39.28407123 144.48914157 -39.28407123 144.48914157 0 131 C0.63421875 130.60554687 1.2684375 130.21109375 1.921875 129.8046875 C8.01806874 125.45398513 10.26743977 119.08356484 12 112 C13.9155472 96.74283457 9.67106946 80.65607161 3 67 C2.58234375 66.1028125 2.1646875 65.205625 1.734375 64.28125 C-2.31267043 56.18715914 -7.9112679 49.60112317 -14 43 C-14.57991699 42.3694873 -15.15983398 41.73897461 -15.75732422 41.08935547 C-23.70165424 32.55655656 -31.51099429 25.31112994 -42 20 C-42.91136719 19.53464844 -43.82273437 19.06929687 -44.76171875 18.58984375 C-67.47661276 7.10284412 -92.02339805 -2.57627692 -118 -2 Z " fill="rgb(238, 238, 238)" transform="translate(1664,350)"/>
<path d="M0 0 C1.0003125 -0.00386719 2.000625 -0.00773437 3.03125 -0.01171875 C3.99289062 -0.01042969 4.95453125 -0.00914062 5.9453125 -0.0078125 C7.22559326 -0.00612061 7.22559326 -0.00612061 8.53173828 -0.00439453 C10.77728153 0.119604 12.7207295 0.49892485 14.875 1.125 C14.875 1.785 14.875 2.445 14.875 3.125 C15.535 3.125 16.195 3.125 16.875 3.125 C15.56737234 10.88862134 13.90497913 18.50287681 11.9375 26.125 C11.55948242 27.65833984 11.55948242 27.65833984 11.17382812 29.22265625 C10.92181641 30.20105469 10.66980469 31.17945313 10.41015625 32.1875 C10.187229 33.06535156 9.96430176 33.94320312 9.73461914 34.84765625 C8.74470978 37.47017102 8.22196621 38.57399864 5.875 40.125 C3.29798208 40.53745798 0.91677523 40.77524989 -1.67578125 40.8984375 C-3.2433471 40.99878862 -4.81089182 41.0994701 -6.37841797 41.20043945 C-7.20355896 41.24866852 -8.02869995 41.29689758 -8.87884521 41.34658813 C-44.45659802 43.41539629 -44.45659802 43.41539629 -78.125 54.125 C-79.14754883 54.5900293 -80.17009766 55.05505859 -81.22363281 55.53417969 C-84.80544285 57.16740446 -88.37414788 58.82703872 -91.9375 60.5 C-93.07147217 61.02916016 -94.20544434 61.55832031 -95.3737793 62.10351562 C-120.54152146 74.24036573 -140.06020972 96.38329324 -149.3828125 122.671875 C-154.4366349 139.2184639 -155.04379232 155.15626076 -152.375 172.125 C-152.21773437 173.22328125 -152.06046875 174.3215625 -151.8984375 175.453125 C-149.58851274 190.44986729 -144.55370206 202.90242809 -132.125 212.125 C-108.88992081 228.50289729 -82.06137241 232.29931202 -54.69580078 237.44824219 C-51.83508321 237.99042112 -48.97858203 238.54669245 -46.125 239.125 C-46.125 239.785 -46.125 240.445 -46.125 241.125 C-45.465 241.125 -44.805 241.125 -44.125 241.125 C-46.11642495 250.53698607 -48.23109146 259.90096691 -50.75 269.1875 C-50.95584717 269.96657715 -51.16169434 270.7456543 -51.3737793 271.54833984 C-51.89429625 273.42591131 -52.50187605 275.2789423 -53.125 277.125 C-61.00466806 281.06483403 -76.11364199 275.69590093 -84.40722656 273.90625 C-86.85517234 273.3792684 -89.30607609 272.86839282 -91.7578125 272.359375 C-105.66879772 269.42939551 -119.8633847 266.30670039 -132.6875 260 C-133.46923584 259.62166016 -134.25097168 259.24332031 -135.05639648 258.85351562 C-158.26223421 247.26116515 -179.0865088 228.84842167 -188.03515625 203.9609375 C-190.44034188 195.49537373 -191.78079275 186.81151579 -193.125 178.125 C-193.24504395 177.37750488 -193.36508789 176.63000977 -193.48876953 175.85986328 C-198.89440158 141.62956439 -192.15686609 105.04183995 -172.41796875 76.2421875 C-168.967853 71.55191089 -165.12715931 67.34329082 -161.125 63.125 C-160.05671104 61.8799438 -158.99399264 60.63008149 -157.9375 59.375 C-121.61807988 18.12949761 -68.61852103 3.79674947 -15.47753906 0.29492188 C-10.31591094 0.03330717 -5.16733516 -0.02078017 0 0 Z " fill="rgb(238, 238, 238)" transform="translate(1277.125,302.875)"/>
<path d="M0 0 C1.17135452 -0.00480972 1.17135452 -0.00480972 2.36637276 -0.0097166 C5.00483757 -0.01807283 7.64307868 -0.0120728 10.28154755 -0.00622082 C12.18353313 -0.00923894 14.08551751 -0.0131267 15.98749971 -0.01781338 C21.23107609 -0.02814582 26.4745845 -0.02589829 31.71816659 -0.02163279 C37.36649337 -0.01917506 43.01480337 -0.02816778 48.66312408 -0.03567028 C59.73492617 -0.04844558 70.80670404 -0.05020748 81.87851226 -0.04787002 C90.8734609 -0.04608999 99.86840216 -0.04782971 108.86334991 -0.05209446 C110.78060325 -0.05298724 110.78060325 -0.05298724 112.73658898 -0.05389806 C115.33282419 -0.05510976 117.9290594 -0.05632389 120.5252946 -0.05754044 C137.96732921 -0.06533231 155.40935891 -0.06924348 172.85139465 -0.06522369 C173.87503197 -0.06498913 173.87503197 -0.06498913 174.91934882 -0.06474983 C178.37836168 -0.06394401 181.83737453 -0.06309824 185.29638737 -0.06223653 C185.98339195 -0.06206544 186.67039652 -0.06189435 187.37821942 -0.06171808 C188.76750988 -0.06137142 190.15680033 -0.06102289 191.54609079 -0.06067249 C213.16996196 -0.05531367 234.79379237 -0.06324901 256.41765594 -0.08170605 C280.6968385 -0.10240512 304.97598831 -0.11312174 329.25518179 -0.10913056 C342.11640705 -0.10721412 354.97759517 -0.10974908 367.83881378 -0.1238451 C378.78654154 -0.13572205 389.73420929 -0.13720535 400.68193781 -0.12505493 C406.27210491 -0.11914045 411.86216204 -0.11813731 417.45232201 -0.13005733 C422.56329824 -0.14082936 427.67407154 -0.13791739 432.78503793 -0.12379565 C434.64030553 -0.1211246 436.49558859 -0.12358975 438.3508411 -0.13153151 C440.86056302 -0.14153452 443.36956529 -0.13330501 445.8792572 -0.12025452 C446.9755542 -0.13121854 446.9755542 -0.13121854 448.09399861 -0.14240405 C451.00948318 -0.11068454 452.97443857 -0.06702988 455.41215181 1.61773998 C456.4396286 3.25447559 456.4396286 3.25447559 456.4396286 5.81697559 C455.4396286 8.25447559 455.4396286 8.25447559 453.24466324 9.32021618 C450.362499 10.28016478 447.52837183 10.99849778 444.5590744 11.64012623 C442.78858231 12.02606701 442.78858231 12.02606701 440.98232269 12.41980457 C439.6936731 12.69605167 438.4050235 12.97229877 437.07732391 13.256917 C435.69743035 13.55599285 434.31762091 13.85545705 432.9378891 14.15527821 C429.17390511 14.97207398 425.40877567 15.78347455 421.6434412 16.59401846 C417.62498547 17.46009539 413.60765442 18.3313586 409.59020233 19.20207691 C401.89718492 20.86863502 394.20324417 22.53088791 386.50893474 24.19146955 C375.55325405 26.55606759 364.59872672 28.92599711 353.64451599 31.29739475 C351.97722227 31.65831723 350.30992745 32.01923464 348.64263153 32.38014698 C347.81774593 32.5587151 346.99286033 32.73728323 346.14297819 32.9212625 C341.14079829 34.00382471 336.1381181 35.08404068 331.13505316 36.16250491 C314.09470435 39.83626254 297.06383228 43.54606097 280.05468035 47.36193013 C274.97023271 48.50136642 269.88427021 49.63403118 264.79843688 50.76726425 C259.99404865 51.83899838 255.19276449 52.9234604 250.39345169 54.01768494 C247.44347666 54.68723807 244.49096715 55.34502528 241.53766346 55.99972296 C240.18016501 56.30327523 238.82376198 56.61177831 237.46863842 56.92576265 C230.12773752 58.62436002 223.85567926 59.81419372 216.4396286 58.25447559 C215.56304092 58.08639267 214.68645325 57.91830975 213.78330231 57.7451334 C210.70058726 57.13164302 207.63151315 56.46903262 204.56121063 55.79622364 C202.81549837 55.419348 202.81549837 55.419348 201.0345192 55.0348587 C197.84156041 54.34456643 194.64951149 53.6502405 191.45782614 52.95408869 C188.04223664 52.21011811 184.62551816 51.47136621 181.20894623 50.7319231 C174.60669955 49.30209774 168.00553931 47.86731916 161.40480769 46.43051744 C156.09050768 45.27377828 150.77587019 44.11860263 145.46099091 42.96452808 C129.47616566 39.49342683 113.49243098 36.01735811 97.50991535 32.53563774 C86.22711483 30.07781359 74.94290873 27.62655223 63.65782738 25.17921829 C54.95315498 23.29110309 46.24967643 21.39756855 37.54738808 19.4984951 C32.64468819 18.42859856 27.74155052 17.36083562 22.83715057 16.2987566 C18.32259457 15.32086483 13.80962301 14.33599048 9.29787064 13.34524632 C7.67420255 12.98993848 6.04997884 12.63715865 4.42516708 12.28711796 C2.24645212 11.81734854 0.06992036 11.33856647 -2.10626984 10.8572588 C-3.31426239 10.59387211 -4.52225494 10.33048542 -5.76685333 10.05911732 C-8.5603714 9.25447559 -8.5603714 9.25447559 -10.5603714 7.25447559 C-10.8728714 4.75447559 -10.8728714 4.75447559 -10.5603714 2.25447559 C-6.90930261 -0.17957027 -4.21939401 -0.02538158 0 0 Z " fill="rgb(238, 238, 238)" transform="translate(1165.5603713989258,606.7455244064331)"/>
<path d="M0 0 C1.06144201 -0.00199105 2.12288401 -0.0039821 3.21649092 -0.00603348 C4.97181914 -0.00166422 4.97181914 -0.00166422 6.76260853 0.00279331 C8.00248817 0.00193889 9.24236781 0.00108446 10.51981956 0.00020415 C13.96773943 -0.00116123 17.4156029 0.00197566 20.86351597 0.00698221 C24.57924438 0.01129156 28.29497098 0.00983994 32.01070118 0.00907993 C38.45058768 0.00855501 44.89046406 0.01169855 51.33034801 0.01731777 C60.64139483 0.025437 69.95243675 0.02804843 79.26348672 0.02930576 C94.36921992 0.03149561 109.47494772 0.0381539 124.58067799 0.04760838 C139.25645896 0.05678421 153.93223847 0.06386421 168.60802174 0.06811619 C169.51229323 0.06837891 170.41656472 0.06864164 171.34823837 0.06891232 C175.88460005 0.07021734 180.42096174 0.07148105 184.95732343 0.07272422 C222.60448384 0.08309476 260.25163811 0.10071127 297.89879322 0.12304783 C297.89879322 1.11304783 297.89879322 2.10304783 297.89879322 3.12304783 C298.55879322 3.12304783 299.21879322 3.12304783 299.89879322 3.12304783 C297.73552594 13.31585425 295.39038928 23.45822848 292.83629322 33.56054783 C292.59121021 34.5609409 292.3461272 35.56133396 292.09361744 36.59204197 C291.85272388 37.52910984 291.61183033 38.46617771 291.36363697 39.43164158 C291.15343922 40.26493992 290.94324146 41.09823826 290.72667408 41.95678806 C289.73885801 44.54153946 289.17155387 45.52008029 286.89879322 47.12304783 C284.27430081 47.24812216 281.94631914 47.18529148 279.34650135 46.95909214 C278.55801975 46.90245236 277.76953814 46.84581259 276.95716316 46.78745645 C274.2690061 46.58632472 271.58425454 46.35735591 268.89879322 46.12304783 C267.9504743 46.0426782 267.00215538 45.96230856 266.02509952 45.87950349 C258.25741503 45.2152466 250.49656275 44.48293787 242.73546314 43.74633884 C240.14312326 43.50285011 237.55075592 43.25965361 234.95836353 43.01672459 C228.69166759 42.42889508 222.42532529 41.83737721 216.15910961 41.24445219 C211.06251015 40.76226272 205.96578555 40.28141669 200.86897182 39.80149746 C199.77505406 39.69849082 199.77505406 39.69849082 198.65903694 39.59340323 C197.1769343 39.45384866 195.69483142 39.31429667 194.2127283 39.17474722 C180.36630452 37.87085305 166.52028692 36.56268686 152.67440424 35.25306099 C140.82024745 34.13193144 128.96573213 33.01465957 117.11095142 31.90014744 C103.30155561 30.60187377 89.49240159 29.30107198 75.68361074 27.99637836 C74.20891944 27.85705317 72.73422779 27.71773169 71.25953579 27.57841396 C70.5341856 27.50988762 69.80883542 27.44136127 69.06150493 27.37075837 C63.97448102 26.89034707 58.88728999 26.41173216 53.8000288 25.93384075 C46.9451054 25.28984915 40.09057824 24.64177256 33.23629475 23.9910059 C30.72788916 23.753465 28.21936083 23.51721608 25.71070004 23.28238583 C18.43585603 22.60094753 11.16468126 21.89450031 3.89879322 21.12304783 C3.14819071 21.04490054 2.3975882 20.96675325 1.62424016 20.88623786 C-0.23493827 20.68427426 -2.0907621 20.45200828 -3.94597912 20.21641636 C-4.87589011 20.09981128 -5.80580111 19.9832062 -6.76389122 19.86306763 C-9.7462053 18.91883421 -11.12316172 17.51090416 -13.10120678 15.12304783 C-13.90045872 12.0417938 -13.75482961 9.23052586 -13.10120678 6.12304783 C-9.25533054 1.13380298 -6.10889709 -0.00252329 0 0 Z " fill="rgb(238, 238, 238)" transform="translate(1021.10120677948,198.87695217132568)"/>
<path d="M0 0 C38.38790045 -0.04575769 76.77579679 -0.08100916 115.16371898 -0.10213066 C119.69370007 -0.10463213 124.2236811 -0.10722077 128.75366211 -0.10986328 C129.65551622 -0.1103879 130.55737033 -0.11091252 131.48655335 -0.11145304 C146.09753365 -0.12016041 160.70849825 -0.13593222 175.31946924 -0.15430559 C190.30684687 -0.1729954 205.29421626 -0.18411478 220.28160506 -0.18817699 C229.53283633 -0.19092396 238.7840232 -0.19960632 248.03524081 -0.21583293 C254.37542218 -0.22638847 260.71558054 -0.22960388 267.05577006 -0.22700275 C270.71607658 -0.22571923 274.37630542 -0.22771456 278.03659821 -0.23841095 C282.00230761 -0.24991542 285.96791522 -0.24598523 289.93363953 -0.24050903 C291.0941417 -0.24633472 292.25464388 -0.2521604 293.45031279 -0.25816262 C294.5122535 -0.25418052 295.57419421 -0.25019842 296.66831493 -0.24609566 C297.58382065 -0.2468551 298.49932637 -0.24761454 299.44257468 -0.24839699 C302.32909594 0.03196435 304.4195093 0.68021544 307 2 C309.48836965 5.73255448 309.54226552 7.58440935 309 12 C304.6229177 17.12664543 298.93268061 16.9658914 292.6395874 17.50604248 C291.47785295 17.61971609 290.31611849 17.73338971 289.11917996 17.85050797 C285.8994258 18.16198938 282.67867187 18.45775449 279.45685124 18.74692321 C275.98041285 19.06278809 272.50591977 19.39884273 269.03114319 19.73240662 C262.22482679 20.38259284 255.41690973 21.01422877 248.60829154 21.63979688 C240.67645039 22.36934834 232.74644343 23.11796017 224.81647554 23.86755446 C210.66296104 25.20485449 196.50797938 26.52592419 182.35205078 27.83740234 C168.62353113 29.10930688 154.89596197 30.39085965 141.16943359 31.68408203 C140.3245421 31.76368002 139.47965061 31.843278 138.60915634 31.92528805 C135.21279447 32.24528298 131.81643416 32.56529439 128.42007707 32.88534002 C114.54058315 34.19294956 100.66034974 35.49267751 86.78001881 36.79136753 C83.61920829 37.08713337 80.45843001 37.38324024 77.29767895 37.67964077 C68.98735831 38.45883837 60.67681788 39.23553744 52.36555591 40.00463715 C48.9293614 40.32263624 45.49329497 40.64186913 42.05755043 40.96469688 C38.32816643 41.31434126 34.59833855 41.65879674 30.86834717 42.00189209 C29.24940603 42.15538278 29.24940603 42.15538278 27.59775901 42.31197429 C21.70206055 42.84785648 15.92013324 43.09826658 10 43 C8.56967273 37.52062925 7.14568578 32.03966483 5.72753906 26.55712891 C5.24425206 24.69241951 4.75923815 22.8281568 4.27246094 20.96435547 C3.57292029 18.28468649 2.87961378 15.60347046 2.1875 12.921875 C1.96876221 12.08944275 1.75002441 11.2570105 1.5246582 10.39935303 C1.32445068 9.61884583 1.12424316 8.83833862 0.91796875 8.03417969 C0.74031982 7.35023132 0.5626709 6.66628296 0.37963867 5.96160889 C0 4 0 4 0 0 Z " fill="rgb(238, 238, 238)" transform="translate(1458,201)"/>
</svg>
